<mxfile host="app.diagrams.net" agent="Mozilla/5.0 (Macintosh; Intel Mac OS X 10_15_7) AppleWebKit/537.36 (KHTML, like Gecko) Chrome/130.0.0.0 Safari/537.36" version="24.8.4">
  <diagram name="PÃ¡gina-1" id="rgXPZdrK9z_HuQL8LLKX">
    <mxGraphModel dx="867" dy="661" grid="1" gridSize="10" guides="1" tooltips="1" connect="1" arrows="1" fold="1" page="1" pageScale="1" pageWidth="827" pageHeight="1169" math="0" shadow="0">
      <root>
        <mxCell id="0" />
        <mxCell id="1" parent="0" />
        <mxCell id="KZDp0jfgipfefOgM_7Fg-1" value="requisitos funcionais&lt;div&gt;- postar fotos&lt;/div&gt;&lt;div&gt;- feed&lt;/div&gt;&lt;div&gt;- like, comentario&lt;/div&gt;&lt;div&gt;- notificar&lt;/div&gt;" style="text;html=1;align=left;verticalAlign=middle;resizable=0;points=[];autosize=1;strokeColor=none;fillColor=none;" parent="1" vertex="1">
          <mxGeometry x="30" y="20" width="130" height="90" as="geometry" />
        </mxCell>
        <mxCell id="KZDp0jfgipfefOgM_7Fg-2" value="requisitos nao funcionais&lt;div&gt;- escalavel&lt;/div&gt;&lt;div&gt;- disponivel&lt;/div&gt;&lt;div&gt;- seguro&lt;/div&gt;&lt;div&gt;- logs&lt;/div&gt;" style="text;html=1;align=left;verticalAlign=middle;resizable=0;points=[];autosize=1;strokeColor=none;fillColor=none;" parent="1" vertex="1">
          <mxGeometry x="170" y="20" width="160" height="90" as="geometry" />
        </mxCell>
        <mxCell id="KZDp0jfgipfefOgM_7Fg-3" value="requests&lt;div&gt;500M de users&lt;/div&gt;&lt;div&gt;50 ver fotos por dia = 25B ver fotos por dia&lt;/div&gt;&lt;div&gt;10:1 like:post -&amp;gt; 2B fotos postadas&lt;/div&gt;&lt;div&gt;1 foto = 100kb = 5&lt;/div&gt;" style="text;html=1;align=left;verticalAlign=middle;resizable=0;points=[];autosize=1;strokeColor=none;fillColor=none;" parent="1" vertex="1">
          <mxGeometry x="330" y="20" width="250" height="90" as="geometry" />
        </mxCell>
        <mxCell id="KZDp0jfgipfefOgM_7Fg-4" value="user" style="shape=umlActor;verticalLabelPosition=bottom;verticalAlign=top;html=1;" parent="1" vertex="1">
          <mxGeometry x="30" y="300" width="30" height="60" as="geometry" />
        </mxCell>
        <mxCell id="KZDp0jfgipfefOgM_7Fg-8" style="edgeStyle=orthogonalEdgeStyle;rounded=0;orthogonalLoop=1;jettySize=auto;html=1;exitX=1;exitY=0.5;exitDx=0;exitDy=0;exitPerimeter=0;entryX=0;entryY=0.5;entryDx=0;entryDy=0;" parent="1" source="KZDp0jfgipfefOgM_7Fg-5" target="KZDp0jfgipfefOgM_7Fg-7" edge="1">
          <mxGeometry relative="1" as="geometry" />
        </mxCell>
        <mxCell id="KZDp0jfgipfefOgM_7Fg-47" style="edgeStyle=orthogonalEdgeStyle;rounded=0;orthogonalLoop=1;jettySize=auto;html=1;exitX=0.5;exitY=1;exitDx=0;exitDy=0;exitPerimeter=0;" parent="1" source="KZDp0jfgipfefOgM_7Fg-5" target="KZDp0jfgipfefOgM_7Fg-45" edge="1">
          <mxGeometry relative="1" as="geometry" />
        </mxCell>
        <mxCell id="KZDp0jfgipfefOgM_7Fg-5" value="load balancer" style="strokeWidth=2;html=1;shape=mxgraph.flowchart.decision;whiteSpace=wrap;" parent="1" vertex="1">
          <mxGeometry x="96" y="285" width="100" height="70" as="geometry" />
        </mxCell>
        <mxCell id="KZDp0jfgipfefOgM_7Fg-6" style="edgeStyle=orthogonalEdgeStyle;rounded=0;orthogonalLoop=1;jettySize=auto;html=1;exitX=1;exitY=0.3333333333333333;exitDx=0;exitDy=0;exitPerimeter=0;entryX=0;entryY=0.5;entryDx=0;entryDy=0;entryPerimeter=0;" parent="1" source="KZDp0jfgipfefOgM_7Fg-4" target="KZDp0jfgipfefOgM_7Fg-5" edge="1">
          <mxGeometry relative="1" as="geometry" />
        </mxCell>
        <mxCell id="KZDp0jfgipfefOgM_7Fg-11" style="edgeStyle=orthogonalEdgeStyle;rounded=0;orthogonalLoop=1;jettySize=auto;html=1;exitX=1;exitY=0.5;exitDx=0;exitDy=0;" parent="1" source="KZDp0jfgipfefOgM_7Fg-7" target="KZDp0jfgipfefOgM_7Fg-9" edge="1">
          <mxGeometry relative="1" as="geometry" />
        </mxCell>
        <mxCell id="KZDp0jfgipfefOgM_7Fg-12" style="edgeStyle=orthogonalEdgeStyle;rounded=0;orthogonalLoop=1;jettySize=auto;html=1;exitX=1;exitY=0.5;exitDx=0;exitDy=0;" parent="1" source="KZDp0jfgipfefOgM_7Fg-7" target="KZDp0jfgipfefOgM_7Fg-10" edge="1">
          <mxGeometry relative="1" as="geometry" />
        </mxCell>
        <mxCell id="KZDp0jfgipfefOgM_7Fg-7" value="api gateway&lt;br&gt;(auth0, rate limit)" style="rounded=1;whiteSpace=wrap;html=1;absoluteArcSize=1;arcSize=14;strokeWidth=2;" parent="1" vertex="1">
          <mxGeometry x="230" y="300" width="100" height="40" as="geometry" />
        </mxCell>
        <mxCell id="faIAEdn3CEvSJ49lco6Q-3" style="edgeStyle=orthogonalEdgeStyle;rounded=0;orthogonalLoop=1;jettySize=auto;html=1;exitX=0.5;exitY=0;exitDx=0;exitDy=0;entryX=0;entryY=0.5;entryDx=0;entryDy=0;" edge="1" parent="1" source="KZDp0jfgipfefOgM_7Fg-9" target="KZDp0jfgipfefOgM_7Fg-23">
          <mxGeometry relative="1" as="geometry" />
        </mxCell>
        <mxCell id="faIAEdn3CEvSJ49lco6Q-5" style="edgeStyle=orthogonalEdgeStyle;rounded=0;orthogonalLoop=1;jettySize=auto;html=1;exitX=1;exitY=0.5;exitDx=0;exitDy=0;entryX=0;entryY=0.25;entryDx=0;entryDy=0;" edge="1" parent="1" source="KZDp0jfgipfefOgM_7Fg-9" target="faIAEdn3CEvSJ49lco6Q-2">
          <mxGeometry relative="1" as="geometry" />
        </mxCell>
        <mxCell id="KZDp0jfgipfefOgM_7Fg-9" value="app (write)" style="rounded=1;whiteSpace=wrap;html=1;absoluteArcSize=1;arcSize=14;strokeWidth=2;" parent="1" vertex="1">
          <mxGeometry x="361" y="260" width="100" height="40" as="geometry" />
        </mxCell>
        <mxCell id="KZDp0jfgipfefOgM_7Fg-17" value="" style="edgeStyle=orthogonalEdgeStyle;rounded=0;orthogonalLoop=1;jettySize=auto;html=1;" parent="1" source="KZDp0jfgipfefOgM_7Fg-10" target="KZDp0jfgipfefOgM_7Fg-16" edge="1">
          <mxGeometry relative="1" as="geometry" />
        </mxCell>
        <mxCell id="KZDp0jfgipfefOgM_7Fg-20" style="edgeStyle=orthogonalEdgeStyle;rounded=0;orthogonalLoop=1;jettySize=auto;html=1;exitX=1;exitY=0.5;exitDx=0;exitDy=0;entryX=0;entryY=0.5;entryDx=0;entryDy=0;" parent="1" source="KZDp0jfgipfefOgM_7Fg-10" target="KZDp0jfgipfefOgM_7Fg-18" edge="1">
          <mxGeometry relative="1" as="geometry" />
        </mxCell>
        <mxCell id="KZDp0jfgipfefOgM_7Fg-21" style="edgeStyle=orthogonalEdgeStyle;rounded=0;orthogonalLoop=1;jettySize=auto;html=1;exitX=1;exitY=0.5;exitDx=0;exitDy=0;entryX=0;entryY=0.5;entryDx=0;entryDy=0;" parent="1" source="KZDp0jfgipfefOgM_7Fg-10" target="KZDp0jfgipfefOgM_7Fg-19" edge="1">
          <mxGeometry relative="1" as="geometry" />
        </mxCell>
        <mxCell id="KZDp0jfgipfefOgM_7Fg-10" value="app (read)" style="rounded=1;whiteSpace=wrap;html=1;absoluteArcSize=1;arcSize=14;strokeWidth=2;" parent="1" vertex="1">
          <mxGeometry x="366" y="340" width="100" height="40" as="geometry" />
        </mxCell>
        <mxCell id="KZDp0jfgipfefOgM_7Fg-31" style="edgeStyle=orthogonalEdgeStyle;rounded=0;orthogonalLoop=1;jettySize=auto;html=1;exitX=0.4;exitY=0.1;exitDx=0;exitDy=0;exitPerimeter=0;entryX=0.5;entryY=0;entryDx=0;entryDy=0;" parent="1" source="KZDp0jfgipfefOgM_7Fg-13" target="KZDp0jfgipfefOgM_7Fg-29" edge="1">
          <mxGeometry relative="1" as="geometry" />
        </mxCell>
        <mxCell id="KZDp0jfgipfefOgM_7Fg-13" value="AWS S3" style="ellipse;shape=cloud;whiteSpace=wrap;html=1;" parent="1" vertex="1">
          <mxGeometry x="660" y="160" width="100" height="60" as="geometry" />
        </mxCell>
        <mxCell id="KZDp0jfgipfefOgM_7Fg-42" style="edgeStyle=orthogonalEdgeStyle;rounded=0;orthogonalLoop=1;jettySize=auto;html=1;exitX=1;exitY=0.5;exitDx=0;exitDy=0;entryX=0;entryY=0.5;entryDx=0;entryDy=0;" parent="1" source="KZDp0jfgipfefOgM_7Fg-16" target="KZDp0jfgipfefOgM_7Fg-39" edge="1">
          <mxGeometry relative="1" as="geometry" />
        </mxCell>
        <mxCell id="KZDp0jfgipfefOgM_7Fg-16" value="search service&lt;br&gt;(elasticsearch)" style="rounded=1;whiteSpace=wrap;html=1;absoluteArcSize=1;arcSize=14;strokeWidth=2;" parent="1" vertex="1">
          <mxGeometry x="534" y="340" width="100" height="40" as="geometry" />
        </mxCell>
        <mxCell id="KZDp0jfgipfefOgM_7Fg-37" style="edgeStyle=orthogonalEdgeStyle;rounded=0;orthogonalLoop=1;jettySize=auto;html=1;exitX=1;exitY=0.5;exitDx=0;exitDy=0;entryX=0;entryY=0.5;entryDx=0;entryDy=0;" parent="1" source="KZDp0jfgipfefOgM_7Fg-18" target="KZDp0jfgipfefOgM_7Fg-34" edge="1">
          <mxGeometry relative="1" as="geometry" />
        </mxCell>
        <mxCell id="KZDp0jfgipfefOgM_7Fg-43" style="edgeStyle=orthogonalEdgeStyle;rounded=0;orthogonalLoop=1;jettySize=auto;html=1;exitX=1;exitY=0.25;exitDx=0;exitDy=0;entryX=0;entryY=0.3;entryDx=0;entryDy=0;" parent="1" source="KZDp0jfgipfefOgM_7Fg-18" target="KZDp0jfgipfefOgM_7Fg-39" edge="1">
          <mxGeometry relative="1" as="geometry" />
        </mxCell>
        <mxCell id="KZDp0jfgipfefOgM_7Fg-18" value="user service" style="rounded=1;whiteSpace=wrap;html=1;absoluteArcSize=1;arcSize=14;strokeWidth=2;" parent="1" vertex="1">
          <mxGeometry x="534" y="390" width="100" height="40" as="geometry" />
        </mxCell>
        <mxCell id="KZDp0jfgipfefOgM_7Fg-22" style="edgeStyle=orthogonalEdgeStyle;rounded=0;orthogonalLoop=1;jettySize=auto;html=1;exitX=1;exitY=0.5;exitDx=0;exitDy=0;" parent="1" source="KZDp0jfgipfefOgM_7Fg-19" target="KZDp0jfgipfefOgM_7Fg-13" edge="1">
          <mxGeometry relative="1" as="geometry" />
        </mxCell>
        <mxCell id="KZDp0jfgipfefOgM_7Fg-44" style="edgeStyle=orthogonalEdgeStyle;rounded=0;orthogonalLoop=1;jettySize=auto;html=1;exitX=1;exitY=0.5;exitDx=0;exitDy=0;entryX=0;entryY=0.7;entryDx=0;entryDy=0;" parent="1" source="KZDp0jfgipfefOgM_7Fg-19" target="KZDp0jfgipfefOgM_7Fg-39" edge="1">
          <mxGeometry relative="1" as="geometry" />
        </mxCell>
        <mxCell id="KZDp0jfgipfefOgM_7Fg-19" value="feed service" style="rounded=1;whiteSpace=wrap;html=1;absoluteArcSize=1;arcSize=14;strokeWidth=2;" parent="1" vertex="1">
          <mxGeometry x="534" y="440" width="100" height="40" as="geometry" />
        </mxCell>
        <mxCell id="KZDp0jfgipfefOgM_7Fg-25" style="edgeStyle=orthogonalEdgeStyle;rounded=0;orthogonalLoop=1;jettySize=auto;html=1;exitX=1;exitY=0.5;exitDx=0;exitDy=0;" parent="1" source="KZDp0jfgipfefOgM_7Fg-23" target="KZDp0jfgipfefOgM_7Fg-13" edge="1">
          <mxGeometry relative="1" as="geometry" />
        </mxCell>
        <mxCell id="KZDp0jfgipfefOgM_7Fg-35" style="edgeStyle=orthogonalEdgeStyle;rounded=0;orthogonalLoop=1;jettySize=auto;html=1;exitX=1;exitY=0.5;exitDx=0;exitDy=0;entryX=0;entryY=0.5;entryDx=0;entryDy=0;" parent="1" source="KZDp0jfgipfefOgM_7Fg-23" target="KZDp0jfgipfefOgM_7Fg-33" edge="1">
          <mxGeometry relative="1" as="geometry" />
        </mxCell>
        <mxCell id="KZDp0jfgipfefOgM_7Fg-23" value="post service" style="rounded=1;whiteSpace=wrap;html=1;absoluteArcSize=1;arcSize=14;strokeWidth=2;" parent="1" vertex="1">
          <mxGeometry x="510" y="200" width="100" height="40" as="geometry" />
        </mxCell>
        <mxCell id="KZDp0jfgipfefOgM_7Fg-27" value="&lt;font style=&quot;font-size: 11px;&quot;&gt;websocket service (redis to know whos online)&lt;/font&gt;" style="rounded=1;whiteSpace=wrap;html=1;absoluteArcSize=1;arcSize=14;strokeWidth=2;" parent="1" vertex="1">
          <mxGeometry x="570" y="270" width="100" height="40" as="geometry" />
        </mxCell>
        <mxCell id="KZDp0jfgipfefOgM_7Fg-29" value="CDN" style="ellipse;whiteSpace=wrap;html=1;aspect=fixed;" parent="1" vertex="1">
          <mxGeometry x="240" y="190" width="60" height="60" as="geometry" />
        </mxCell>
        <mxCell id="KZDp0jfgipfefOgM_7Fg-32" style="edgeStyle=orthogonalEdgeStyle;rounded=0;orthogonalLoop=1;jettySize=auto;html=1;exitX=0;exitY=0.5;exitDx=0;exitDy=0;entryX=0.5;entryY=0;entryDx=0;entryDy=0;entryPerimeter=0;" parent="1" source="KZDp0jfgipfefOgM_7Fg-29" target="KZDp0jfgipfefOgM_7Fg-4" edge="1">
          <mxGeometry relative="1" as="geometry" />
        </mxCell>
        <mxCell id="KZDp0jfgipfefOgM_7Fg-33" value="NoSQL (write replica)" style="shape=datastore;whiteSpace=wrap;html=1;" parent="1" vertex="1">
          <mxGeometry x="750" y="250" width="70" height="80" as="geometry" />
        </mxCell>
        <mxCell id="KZDp0jfgipfefOgM_7Fg-34" value="NoSQL (read replica)" style="shape=datastore;whiteSpace=wrap;html=1;" parent="1" vertex="1">
          <mxGeometry x="740" y="370" width="70" height="80" as="geometry" />
        </mxCell>
        <mxCell id="KZDp0jfgipfefOgM_7Fg-38" style="edgeStyle=orthogonalEdgeStyle;rounded=0;orthogonalLoop=1;jettySize=auto;html=1;exitX=1;exitY=0.5;exitDx=0;exitDy=0;entryX=-0.043;entryY=0.588;entryDx=0;entryDy=0;entryPerimeter=0;" parent="1" source="KZDp0jfgipfefOgM_7Fg-19" target="KZDp0jfgipfefOgM_7Fg-34" edge="1">
          <mxGeometry relative="1" as="geometry" />
        </mxCell>
        <mxCell id="KZDp0jfgipfefOgM_7Fg-39" value="redis" style="shape=datastore;whiteSpace=wrap;html=1;" parent="1" vertex="1">
          <mxGeometry x="680" y="490" width="60" height="60" as="geometry" />
        </mxCell>
        <mxCell id="KZDp0jfgipfefOgM_7Fg-40" style="edgeStyle=orthogonalEdgeStyle;rounded=0;orthogonalLoop=1;jettySize=auto;html=1;exitX=1;exitY=0.5;exitDx=0;exitDy=0;entryX=0.317;entryY=0.317;entryDx=0;entryDy=0;entryPerimeter=0;" parent="1" source="KZDp0jfgipfefOgM_7Fg-23" target="KZDp0jfgipfefOgM_7Fg-39" edge="1">
          <mxGeometry relative="1" as="geometry" />
        </mxCell>
        <mxCell id="KZDp0jfgipfefOgM_7Fg-41" style="edgeStyle=orthogonalEdgeStyle;rounded=0;orthogonalLoop=1;jettySize=auto;html=1;exitX=1;exitY=0.25;exitDx=0;exitDy=0;entryX=0.433;entryY=0.45;entryDx=0;entryDy=0;entryPerimeter=0;" parent="1" source="KZDp0jfgipfefOgM_7Fg-27" target="KZDp0jfgipfefOgM_7Fg-39" edge="1">
          <mxGeometry relative="1" as="geometry" />
        </mxCell>
        <mxCell id="KZDp0jfgipfefOgM_7Fg-45" value="grafana" style="rounded=1;whiteSpace=wrap;html=1;absoluteArcSize=1;arcSize=14;strokeWidth=2;" parent="1" vertex="1">
          <mxGeometry x="170" y="410" width="100" height="40" as="geometry" />
        </mxCell>
        <mxCell id="KZDp0jfgipfefOgM_7Fg-46" style="edgeStyle=orthogonalEdgeStyle;rounded=0;orthogonalLoop=1;jettySize=auto;html=1;exitX=0.5;exitY=1;exitDx=0;exitDy=0;entryX=0.67;entryY=0.075;entryDx=0;entryDy=0;entryPerimeter=0;" parent="1" source="KZDp0jfgipfefOgM_7Fg-7" target="KZDp0jfgipfefOgM_7Fg-45" edge="1">
          <mxGeometry relative="1" as="geometry" />
        </mxCell>
        <mxCell id="faIAEdn3CEvSJ49lco6Q-4" style="edgeStyle=orthogonalEdgeStyle;rounded=0;orthogonalLoop=1;jettySize=auto;html=1;exitX=1;exitY=0.5;exitDx=0;exitDy=0;entryX=0;entryY=0.5;entryDx=0;entryDy=0;" edge="1" parent="1" source="faIAEdn3CEvSJ49lco6Q-2" target="KZDp0jfgipfefOgM_7Fg-27">
          <mxGeometry relative="1" as="geometry" />
        </mxCell>
        <mxCell id="faIAEdn3CEvSJ49lco6Q-2" value="notification&lt;div&gt;queue&lt;/div&gt;" style="rounded=1;whiteSpace=wrap;html=1;absoluteArcSize=1;arcSize=14;strokeWidth=2;" vertex="1" parent="1">
          <mxGeometry x="478" y="274" width="80" height="30" as="geometry" />
        </mxCell>
        <mxCell id="faIAEdn3CEvSJ49lco6Q-6" value="read about&lt;div&gt;multi nodes websockets&lt;/div&gt;" style="text;html=1;align=center;verticalAlign=middle;resizable=0;points=[];autosize=1;strokeColor=none;fillColor=none;" vertex="1" parent="1">
          <mxGeometry x="525" y="93" width="150" height="40" as="geometry" />
        </mxCell>
      </root>
    </mxGraphModel>
  </diagram>
</mxfile>
